<svg width="32" height="32" viewBox="0 0 32 32" fill="none" xmlns="http://www.w3.org/2000/svg">
<path d="M10.0159 16.1342L13.6825 14.0198C14.0965 13.7808 14.3986 13.3871 14.5223 12.9253C14.6461 12.4636 14.5813 11.9716 14.3423 11.5575C14.1033 11.1435 13.7096 10.8414 13.2478 10.7177C12.786 10.5939 12.294 10.6587 11.88 10.8977L5.55078 14.5522L10.0159 16.1342Z" fill="#EA4335"/>
<path d="M12.7519 21.6096C13.1481 21.6088 13.5329 21.4775 13.847 21.2361C14.1611 20.9947 14.3869 20.6566 14.4897 20.274C14.5925 19.8915 14.5664 19.4857 14.4156 19.1194C14.2647 18.7531 13.9974 18.4467 13.655 18.2475L7.32584 14.593C7.12084 14.4747 6.89453 14.3979 6.65985 14.367C6.42516 14.3361 6.18669 14.3517 5.95804 14.413C5.7294 14.4743 5.51505 14.58 5.32726 14.7241C5.13947 14.8682 4.9819 15.0479 4.86355 15.2529C4.74519 15.4579 4.66838 15.6842 4.63749 15.9189C4.60659 16.1535 4.62223 16.392 4.6835 16.6207C4.74477 16.8493 4.85047 17.0636 4.99458 17.2514C5.13868 17.4392 5.31836 17.5968 5.52336 17.7152L11.8526 21.3696C12.1261 21.5271 12.4363 21.6099 12.7519 21.6096Z" fill="#4285F4"/>
<path d="M19.0729 21.5745C19.3888 21.5742 19.6989 21.4908 19.9723 21.3326L26.3015 17.6782L21.8897 16.0625L18.1698 18.2105C17.8275 18.4098 17.5602 18.7162 17.4093 19.0825C17.2585 19.4487 17.2324 19.8545 17.3352 20.2371C17.4379 20.6197 17.6638 20.9577 17.9779 21.1991C18.292 21.4405 18.6768 21.5718 19.0729 21.5727V21.5745Z" fill="#FBBC04"/>
<path d="M25.3986 17.9201C25.795 17.9198 26.1803 17.7888 26.4948 17.5474C26.8092 17.306 27.0354 16.9676 27.1381 16.5847C27.2408 16.2019 27.2145 15.7958 27.0631 15.4294C26.9117 15.063 26.6438 14.7567 26.3008 14.558L19.9715 10.9035C19.5597 10.6863 19.0798 10.6368 18.6323 10.7656C18.1849 10.8943 17.8046 11.1911 17.5711 11.594C17.3376 11.9968 17.2691 12.4744 17.3799 12.9266C17.4906 13.3788 17.7721 13.7707 18.1653 14.02L24.4955 17.6745C24.7695 17.8348 25.0811 17.9196 25.3986 17.9201Z" fill="#0F9D58"/>
</svg>
