<svg width="76" height="76" viewBox="0 0 76 76" fill="none" xmlns="http://www.w3.org/2000/svg">
<rect width="76" height="76" rx="8" fill="#0076B2"/>
<path d="M25.0194 61.9696C25.0194 62.9208 24.2483 63.6919 23.2971 63.6919L15.9657 63.6919C15.0145 63.6919 14.2434 62.9208 14.2434 61.9696L14.2434 31.2366C14.2434 30.2854 15.0145 29.5143 15.9657 29.5143L23.2971 29.5143C24.2483 29.5143 25.0194 30.2854 25.0194 31.2366L25.0194 61.9696ZM19.6314 26.6173C15.7848 26.6173 12.6665 23.499 12.6665 19.6524C12.6665 15.8058 15.7848 12.6875 19.6314 12.6875C23.478 12.6875 26.5963 15.8058 26.5963 19.6524C26.5963 23.499 23.4781 26.6173 19.6314 26.6173ZM63.3332 62.1083C63.3332 62.9828 62.6241 63.6919 61.7496 63.6919L53.8824 63.6919C53.0079 63.6919 52.2989 62.9828 52.2989 62.1083L52.2989 47.6928C52.2989 45.5423 52.9297 38.2693 46.679 38.2693C41.8305 38.2693 40.847 43.2475 40.6496 45.4815L40.6496 62.1083C40.6496 62.9828 39.9407 63.6919 39.066 63.6919L31.4571 63.6919C30.5826 63.6919 29.8736 62.9828 29.8736 62.1083L29.8736 31.0979C29.8736 30.2234 30.5826 29.5143 31.4571 29.5143L39.066 29.5143C39.9405 29.5143 40.6496 30.2234 40.6496 31.0979L40.6496 33.7791C42.4474 31.0811 45.1192 28.9986 50.808 28.9986C63.4053 28.9986 63.3332 40.7677 63.3332 47.2342L63.3332 62.1083Z" fill="white"/>
</svg>
