<svg width="76" height="76" viewBox="0 0 76 76" fill="none" xmlns="http://www.w3.org/2000/svg">
<rect width="76" height="76" rx="8" transform="matrix(-1 0 0 1 76 0)" fill="#F4F2ED"/>
<path d="M24.3462 56.8879V37.3122L18.2751 31.7579L12.8311 28.6758V53.4334C12.8311 55.3449 14.3798 56.8879 16.2856 56.8879H24.3462Z" fill="#4285F4"/>
<path d="M51.9824 56.8879H60.043C61.9546 56.8879 63.4976 55.3392 63.4976 53.4334V28.6758L57.3314 32.2063L51.9824 37.3122V56.8879Z" fill="#34A853"/>
<path d="M24.3466 37.3135L23.5205 29.6645L24.3466 22.3438L38.1648 32.7074L51.983 22.3438L52.9072 29.2693L51.983 37.3135L38.1648 47.6771L24.3466 37.3135Z" fill="#EA4335"/>
<path d="M51.9824 22.3433V37.313L63.4976 28.6766V24.0705C63.4976 19.7984 58.6209 17.3629 55.2067 19.9251L51.9824 22.3433Z" fill="#FBBC04"/>
<path d="M12.8311 28.6766L18.1271 32.6486L24.3462 37.313V22.3433L21.122 19.9251C17.702 17.3629 12.8311 19.7984 12.8311 24.0705V28.6766Z" fill="#C5221F"/>
</svg>
