<svg width="610" height="153" viewBox="0 0 610 153" fill="none" xmlns="http://www.w3.org/2000/svg">
<ellipse cx="474.362" cy="51.0102" rx="49.9392" ry="51.0094" transform="rotate(180 474.362 51.0102)" fill="url(#paint0_linear_471_28)"/>
<ellipse cx="524.393" cy="104.19" rx="49.9392" ry="51.0094" transform="rotate(180 524.393 104.19)" fill="url(#paint1_linear_471_28)"/>
<ellipse cx="574.957" cy="153.543" rx="50.0304" ry="50.9684" transform="rotate(180 574.957 153.543)" fill="url(#paint2_linear_471_28)"/>
<ellipse cx="424.958" cy="104.799" rx="49.9392" ry="51.0094" transform="rotate(180 424.958 104.799)" fill="url(#paint3_linear_471_28)"/>
<ellipse cx="375.031" cy="155.418" rx="50.0304" ry="50.9684" transform="rotate(180 375.031 155.418)" fill="url(#paint4_linear_471_28)"/>
<ellipse cx="475.018" cy="154.989" rx="50.0304" ry="50.9684" transform="rotate(180 475.018 154.989)" fill="url(#paint5_linear_471_28)"/>
<defs>
<linearGradient id="paint0_linear_471_28" x1="524.301" y1="51.0102" x2="424.423" y2="51.0102" gradientUnits="userSpaceOnUse">
<stop offset="0.5" stop-color="#9896FF"/>
<stop offset="0.5" stop-color="#E2E0FF"/>
</linearGradient>
<linearGradient id="paint1_linear_471_28" x1="574.333" y1="104.19" x2="474.454" y2="104.19" gradientUnits="userSpaceOnUse">
<stop offset="0.5" stop-color="#9896FF"/>
<stop offset="0.5" stop-color="#E2E0FF"/>
</linearGradient>
<linearGradient id="paint2_linear_471_28" x1="624.987" y1="153.543" x2="524.927" y2="153.543" gradientUnits="userSpaceOnUse">
<stop offset="0.5" stop-color="#9896FE"/>
<stop offset="0.5" stop-color="#E2E0FF"/>
</linearGradient>
<linearGradient id="paint3_linear_471_28" x1="474.897" y1="104.799" x2="375.019" y2="104.799" gradientUnits="userSpaceOnUse">
<stop offset="0.5" stop-color="#9896FF"/>
<stop offset="0.5" stop-color="#E2E0FF"/>
</linearGradient>
<linearGradient id="paint4_linear_471_28" x1="425.061" y1="155.418" x2="325" y2="155.418" gradientUnits="userSpaceOnUse">
<stop offset="0.5" stop-color="#9896FF"/>
<stop offset="0.5" stop-color="#E2E0FF"/>
</linearGradient>
<linearGradient id="paint5_linear_471_28" x1="525.048" y1="154.989" x2="424.988" y2="154.989" gradientUnits="userSpaceOnUse">
<stop offset="0.5" stop-color="#9896FF"/>
<stop offset="0.5" stop-color="#E2E0FF"/>
</linearGradient>
</defs>
</svg>
