<svg width="76" height="76" viewBox="0 0 76 76" fill="none" xmlns="http://www.w3.org/2000/svg">
<rect width="76" height="76" rx="8" fill="#25D366"/>
<path fill-rule="evenodd" clip-rule="evenodd" d="M51.4577 24.5496C49.7053 22.7842 47.6196 21.3845 45.3218 20.4319C43.024 19.4792 40.5599 18.9925 38.0724 19.0001C27.6448 19.0001 19.1583 27.4882 19.1583 37.9221C19.1581 41.2427 20.0318 44.5048 21.6916 47.3807L19 57.1877L29.0318 54.5547C31.8044 56.0662 34.9114 56.8593 38.0693 56.8616C41.8128 56.8623 45.4725 55.7529 48.5856 53.6737C51.6986 51.5944 54.1251 48.6387 55.5582 45.1803C56.9913 41.722 57.3667 37.9163 56.6368 34.2446C55.9069 30.5728 54.1045 27.2001 51.4577 24.5527V24.5496ZM38.0788 53.6744C35.2597 53.6731 32.4929 52.9129 30.0689 51.4736L29.4925 51.13L23.5393 52.6896L25.1226 46.8868L24.7505 46.2914C22.6874 43.0155 21.9044 39.0939 22.5516 35.2769C23.1987 31.4599 25.2305 28.0156 28.2581 25.6028C31.2858 23.19 35.0967 21.9782 38.9619 22.1993C42.827 22.4203 46.475 24.0587 49.2078 26.801C51.409 29.0027 52.9079 31.8075 53.5152 34.861C54.1224 37.9145 53.8107 41.0795 52.6193 43.9558C51.428 46.8321 49.4106 49.2906 46.8221 51.0205C44.2337 52.7503 41.1905 53.6739 38.0772 53.6744H38.0788ZM46.7078 41.8851C46.2328 41.646 43.9101 40.5061 43.4794 40.3477C43.0488 40.1894 42.7321 40.1086 42.4107 40.5868C42.0893 41.065 41.1884 42.1242 40.9129 42.4424C40.6374 42.7607 40.3603 42.8018 39.8917 42.5628C39.423 42.3237 37.8919 41.8249 36.0917 40.2131C35.055 39.2569 34.1642 38.1537 33.4476 36.9389C33.1705 36.4639 33.4175 36.209 33.6582 35.9778C33.8989 35.7467 34.1332 35.4268 34.3659 35.1498C34.5628 34.911 34.7228 34.6441 34.8409 34.3581C34.9038 34.2278 34.9332 34.0838 34.9266 33.9393C34.9199 33.7947 34.8774 33.6541 34.8029 33.53C34.6747 33.2925 33.7247 30.9651 33.3447 30.0167C32.9647 29.0683 32.5705 29.225 32.2791 29.2029C31.9878 29.1807 31.6886 29.1886 31.3767 29.1886C31.1362 29.1943 30.8995 29.2496 30.6815 29.3513C30.4635 29.4529 30.2689 29.5986 30.11 29.7792C29.6841 30.2494 28.4602 31.3973 28.4602 33.7248C28.4602 36.0522 30.1528 38.2974 30.3903 38.6172C30.6278 38.937 33.7247 43.7107 38.4746 45.7579C39.6019 46.2424 40.4822 46.5337 41.1662 46.7585C42.1308 47.0494 43.1496 47.1128 44.1428 46.9438C45.0516 46.8108 46.9389 45.8022 47.3363 44.6986C47.7337 43.5951 47.7322 42.6403 47.6134 42.4519C47.4947 42.2635 47.1875 42.1258 46.7109 41.8835L46.7078 41.8851Z" fill="white"/>
</svg>
